<?xml version="1.0" encoding="UTF-8" standalone="no"?>
<svg width="50px" height="90px" viewBox="0 0 50 90" version="1.1" xmlns="http://www.w3.org/2000/svg" xmlns:xlink="http://www.w3.org/1999/xlink">
    <!-- Generator: Sketch 49.1 (51147) - http://www.bohemiancoding.com/sketch -->
    <title>btn-景点</title>
    <desc>Created with Sketch.</desc>
    <defs>
        <linearGradient x1="50%" y1="0%" x2="50%" y2="100%" id="linearGradient-1">
            <stop stop-color="#9D00E8" offset="0%"></stop>
            <stop stop-color="#CD71FF" offset="100%"></stop>
        </linearGradient>
    </defs>
    <g id="btn-景点" stroke="none" stroke-width="1" fill="none" fill-rule="evenodd">
        <g id="景点">
            <path d="M23.9999923,49.9803652 C10.6564627,49.4554575 0,38.4722038 0,25 C0,11.1928813 11.1928813,0 25,0 C38.8071187,0 50,11.1928813 50,25 C50,38.4722038 39.3435373,49.4554575 26.0000077,49.9803652 L26,83.1449393 C27.4457445,83.5752139 28.5,84.9144897 28.5,86.5 C28.5,88.4329966 26.9329966,90 25,90 C23.0670034,90 21.5,88.4329966 21.5,86.5 C21.5,84.9144897 22.5542555,83.5752139 24,83.1449393 L24,49.9803655 Z" id="Combined-Shape" fill="url(#linearGradient-1)"></path>
            <circle id="Oval-1" fill="#FFFFFF" cx="25" cy="25" r="23"></circle>
            <g id="Imported-Layers" transform="translate(7.083333, 6.666667)">
                <path d="M6.47947442,8.77321187 L29.2931055,8.77321187 C33.0309003,8.77321187 33.1859203,4.63350232 33.1859203,4.63350232 C33.1859203,4.63350232 31.0232884,6.2790452 29.0997602,5.59055872 C27.8700839,5.15041931 27.4684412,4.44075729 28.8034263,3.0312632 C30.2413999,1.51299007 29.5338419,0 29.5338419,0 C29.5338419,0 29.1694934,0.778948035 28.4167356,1.21250528 C27.5144574,1.7321504 25.8130616,1.49856992 25.8130616,1.49856992 L9.95951839,1.49856992 C9.95951839,1.49856992 8.2581225,1.7321504 7.35584432,1.21250528 C6.60304357,0.778948035 6.23873801,0 6.23873801,0 C6.23873801,0 5.53118006,1.51299007 6.96915368,3.0312632 C8.30413869,4.44075729 7.902496,5.15041931 6.67281974,5.59055872 C4.7492486,6.2790452 2.58665967,4.63350232 2.58665967,4.63350232 C2.58665967,4.63350232 2.74167966,8.77321187 6.47947442,8.77321187 L6.47947442,8.77321187 Z" id="Fill-1" fill="#A135D5"></path>
                <path d="M6.47947442,8.77321187 L29.2931055,8.77321187 C33.0309003,8.77321187 33.1859203,4.63350232 33.1859203,4.63350232 C33.1859203,4.63350232 31.0232884,6.2790452 29.0997602,5.59055872 C27.8700839,5.15041931 27.4684412,4.44075729 28.8034263,3.0312632 C30.2413999,1.51299007 29.5338419,0 29.5338419,0 C29.5338419,0 29.1694934,0.778948035 28.4167356,1.21250528 C27.5144574,1.7321504 25.8130616,1.49856992 25.8130616,1.49856992 L9.95951839,1.49856992 C9.95951839,1.49856992 8.2581225,1.7321504 7.35584432,1.21250528 C6.60304357,0.778948035 6.23873801,0 6.23873801,0 C6.23873801,0 5.53118006,1.51299007 6.96915368,3.0312632 C8.30413869,4.44075729 7.902496,5.15041931 6.67281974,5.59055872 C4.7492486,6.2790452 2.58665967,4.63350232 2.58665967,4.63350232 C2.58665967,4.63350232 2.74167966,8.77321187 6.47947442,8.77321187 L6.47947442,8.77321187 Z" id="Stroke-2"></path>
                <path d="M31.6722842,12.293721 C30.4426079,11.8535815 29.6745544,9.50084495 29.6745544,9.50084495 L6.08719824,9.50084495 C6.08719824,9.50084495 5.31914468,11.8535815 4.08946843,12.293721 C2.16594025,12.9822074 0.00330835332,11.3366646 0.00330835332,11.3366646 C0.00330835332,11.3366646 0.158328337,15.4763741 3.8961231,15.4763741 L31.8656295,15.4763741 C35.6034243,15.4763741 35.7584442,11.3366646 35.7584442,11.3366646 C35.7584442,11.3366646 33.5958553,12.9822074 31.6722842,12.293721 L31.6722842,12.293721 Z" id="Fill-3" fill="#A135D5"></path>
                <path d="M31.6722842,12.293721 C30.4426079,11.8535815 29.6745544,9.50084495 29.6745544,9.50084495 L6.08719824,9.50084495 C6.08719824,9.50084495 5.31914468,11.8535815 4.08946843,12.293721 C2.16594025,12.9822074 0.00330835332,11.3366646 0.00330835332,11.3366646 C0.00330835332,11.3366646 0.158328337,15.4763741 3.8961231,15.4763741 L31.8656295,15.4763741 C35.6034243,15.4763741 35.7584442,11.3366646 35.7584442,11.3366646 C35.7584442,11.3366646 33.5958553,12.9822074 31.6722842,12.293721 L31.6722842,12.293721 Z" id="Stroke-4"></path>
                <path d="M29.3843645,18.7109485 C30.0072372,18.7109485 30.5121693,18.2020427 30.5121693,17.5742681 C30.5121693,16.9465368 30.0072372,16.437631 29.3843645,16.437631 L6.37738809,16.437631 C5.75455835,16.437631 5.2496263,16.9465368 5.2496263,17.5742681 C5.2496263,18.2020427 5.75455835,18.7109485 6.37738809,18.7109485 L29.3843645,18.7109485 L29.3843645,18.7109485 Z" id="Fill-5" fill="#A135D5"></path>
                <path d="M29.3843645,18.7109485 C30.0072372,18.7109485 30.5121693,18.2020427 30.5121693,17.5742681 C30.5121693,16.9465368 30.0072372,16.437631 29.3843645,16.437631 L6.37738809,16.437631 C5.75455835,16.437631 5.2496263,16.9465368 5.2496263,17.5742681 C5.2496263,18.2020427 5.75455835,18.7109485 6.37738809,18.7109485 L29.3843645,18.7109485 L29.3843645,18.7109485 Z" id="Stroke-6"></path>
                <path d="M31.2528967,21.0470564 C31.2286641,20.2660731 30.6930546,19.6418494 30.0358094,19.6418494 L5.72688849,19.6418494 C5.06964329,19.6418494 4.53403377,20.2660731 4.50984412,21.0470564 C4.50868405,21.0837347 4.5053757,21.1202398 4.49820044,21.1558787 L1.94406575,33.8806453 C1.93542966,33.9238192 1.93229317,34.0125053 1.93229317,34.0125053 L13.3104506,34.02017 L13.3104506,27.2597169 C13.3104506,24.9996504 15.3591377,23.1675116 17.88629,23.1675116 C20.4134422,23.1675116 22.4621293,24.9996504 22.4621293,27.2597169 L22.4621293,34.0263625 L33.8294594,34.0340272 L31.2644974,21.1558787 C31.2573221,21.1202398 31.2540138,21.0837347 31.2528967,21.0470564 L31.2528967,21.0470564 Z" id="Fill-7" fill="#A135D5"></path>
                <path d="M31.2528967,21.0470564 C31.2286641,20.2660731 30.6930546,19.6418494 30.0358094,19.6418494 L5.72688849,19.6418494 C5.06964329,19.6418494 4.53403377,20.2660731 4.50984412,21.0470564 C4.50868405,21.0837347 4.5053757,21.1202398 4.49820044,21.1558787 L1.94406575,33.8806453 C1.93542966,33.9238192 1.93229317,34.0125053 1.93229317,34.0125053 L13.3104506,34.02017 L13.3104506,27.2597169 C13.3104506,24.9996504 15.3591377,23.1675116 17.88629,23.1675116 C20.4134422,23.1675116 22.4621293,24.9996504 22.4621293,27.2597169 L22.4621293,34.0263625 L33.8294594,34.0340272 L31.2644974,21.1558787 C31.2573221,21.1202398 31.2540138,21.0837347 31.2528967,21.0470564 L31.2528967,21.0470564 Z" id="Stroke-8"></path>
            </g>
        </g>
    </g>
</svg>